<svg width="48" height="48" viewBox="0 0 48 48" fill="none" xmlns="http://www.w3.org/2000/svg">
    <g clip-path="url(#clip0_51_41566)">
        <path fill-rule="evenodd" clip-rule="evenodd" d="M23.9987 26.8283L35.3127 38.1423C35.6899 38.5066 36.1951 38.7082 36.7195 38.7036C37.2439 38.6991 37.7455 38.4888 38.1163 38.1179C38.4871 37.7471 38.6975 37.2455 38.702 36.7211C38.7066 36.1967 38.505 35.6915 38.1407 35.3143L26.8267 24.0003L38.1407 12.6863C38.505 12.3091 38.7066 11.8039 38.702 11.2795C38.6975 10.7551 38.4871 10.2535 38.1163 9.88266C37.7455 9.51185 37.2439 9.30151 36.7195 9.29695C36.1951 9.29239 35.6899 9.49398 35.3127 9.8583L23.9987 21.1723L12.6847 9.8583C12.3058 9.50299 11.8035 9.30903 11.2841 9.31746C10.7648 9.3259 10.2691 9.53606 9.90189 9.90349C9.53472 10.2709 9.32491 10.7668 9.31684 11.2861C9.30878 11.8055 9.50309 12.3076 9.85867 12.6863L21.1707 24.0003L9.85667 35.3143C9.66565 35.4988 9.51329 35.7195 9.40847 35.9635C9.30365 36.2075 9.24848 36.4699 9.24617 36.7355C9.24386 37.0011 9.29446 37.2644 9.39503 37.5102C9.49559 37.756 9.64409 37.9793 9.83188 38.1671C10.0197 38.3549 10.243 38.5034 10.4888 38.6039C10.7346 38.7045 10.9979 38.7551 11.2635 38.7528C11.529 38.7505 11.7915 38.6953 12.0355 38.5905C12.2795 38.4857 12.5002 38.3333 12.6847 38.1423L23.9987 26.8283Z" fill="white"/>
    </g>
    <defs>
        <clipPath id="clip0_51_41566">
            <rect width="48" height="48" fill="white"/>
        </clipPath>
    </defs>
</svg>
