<svg width="91" height="21" viewBox="0 0 91 21" fill="none" xmlns="http://www.w3.org/2000/svg">
    <path fill-rule="evenodd" clip-rule="evenodd" d="M7.26172 1.05973C7.26172 0.641651 7.60035 0.302734 8.01807 0.302734C15.0806 0.302734 19.1456 3.79673 19.1766 7.77416C19.2077 11.7652 15.1785 15.2574 8.01807 15.2574C7.60035 15.2574 7.26172 14.9185 7.26172 14.5004C7.26172 14.0823 7.60035 13.7434 8.01807 13.7434C14.8319 13.7434 17.6852 10.5153 17.6639 7.78596C17.6426 5.04306 14.7205 1.81672 8.01807 1.81672C7.60035 1.81672 7.26172 1.4778 7.26172 1.05973Z" fill="black"/>
    <path fill-rule="evenodd" clip-rule="evenodd" d="M7.26172 1.05973C7.26172 0.641651 7.60035 0.302734 8.01807 0.302734C15.0806 0.302734 19.1456 3.79673 19.1766 7.77416C19.2077 11.7652 15.1785 15.2574 8.01807 15.2574C7.60035 15.2574 7.26172 14.9185 7.26172 14.5004C7.26172 14.0823 7.60035 13.7434 8.01807 13.7434C14.8319 13.7434 17.6852 10.5153 17.6639 7.78596C17.6426 5.04306 14.7205 1.81672 8.01807 1.81672C7.60035 1.81672 7.26172 1.4778 7.26172 1.05973Z" fill="url(#paint0_linear_61_27413)"/>
    <path fill-rule="evenodd" clip-rule="evenodd" d="M7.26172 1.05973C7.26172 0.641651 7.60035 0.302734 8.01807 0.302734C15.0806 0.302734 19.1456 3.79673 19.1766 7.77416C19.2077 11.7652 15.1785 15.2574 8.01807 15.2574C7.60035 15.2574 7.26172 14.9185 7.26172 14.5004C7.26172 14.0823 7.60035 13.7434 8.01807 13.7434C14.8319 13.7434 17.6852 10.5153 17.6639 7.78596C17.6426 5.04306 14.7205 1.81672 8.01807 1.81672C7.60035 1.81672 7.26172 1.4778 7.26172 1.05973Z" fill="url(#paint1_linear_61_27413)"/>
    <path d="M16.8052 9.81618C17.9381 9.81618 18.8565 8.88954 18.8565 7.74647C18.8565 6.6034 17.9381 5.67676 16.8052 5.67676C15.6723 5.67676 14.7539 6.6034 14.7539 7.74647C14.7539 8.88954 15.6723 9.81618 16.8052 9.81618Z" fill="url(#paint2_linear_61_27413)"/>
    <path d="M16.8052 9.81618C17.9381 9.81618 18.8565 8.88954 18.8565 7.74647C18.8565 6.6034 17.9381 5.67676 16.8052 5.67676C15.6723 5.67676 14.7539 6.6034 14.7539 7.74647C14.7539 8.88954 15.6723 9.81618 16.8052 9.81618Z" fill="url(#paint3_linear_61_27413)"/>
    <path fill-rule="evenodd" clip-rule="evenodd" d="M12.2945 19.3021C12.2958 19.7202 11.9582 20.0597 11.5405 20.0605C4.45856 20.0736 0.370718 16.5845 0.327395 12.6023C0.283923 8.60642 4.31435 5.10402 11.4945 5.0907C11.9122 5.08992 12.2519 5.42821 12.2532 5.84628C12.2544 6.26435 11.9169 6.6039 11.4991 6.60467C4.66254 6.61736 1.81028 9.85568 1.84001 12.5876C1.86988 15.3332 4.81109 18.559 11.5359 18.5465C11.9536 18.5457 12.2933 18.884 12.2945 19.3021Z" fill="url(#paint4_linear_61_27413)"/>
    <path d="M2.66456 14.6619C3.79745 14.6619 4.71584 13.7352 4.71584 12.5922C4.71584 11.4491 3.79745 10.5225 2.66456 10.5225C1.53167 10.5225 0.613281 11.4491 0.613281 12.5922C0.613281 13.7352 1.53167 14.6619 2.66456 14.6619Z" fill="url(#paint5_linear_61_27413)"/>
    <path d="M2.66456 14.6619C3.79745 14.6619 4.71584 13.7352 4.71584 12.5922C4.71584 11.4491 3.79745 10.5225 2.66456 10.5225C1.53167 10.5225 0.613281 11.4491 0.613281 12.5922C0.613281 13.7352 1.53167 14.6619 2.66456 14.6619Z" fill="url(#paint6_linear_61_27413)"/>
    <path d="M2.66456 14.6619C3.79745 14.6619 4.71584 13.7352 4.71584 12.5922C4.71584 11.4491 3.79745 10.5225 2.66456 10.5225C1.53167 10.5225 0.613281 11.4491 0.613281 12.5922C0.613281 13.7352 1.53167 14.6619 2.66456 14.6619Z" fill="url(#paint7_linear_61_27413)"/>
    <path d="M31.4453 10.5327C31.4453 11.429 31.2775 12.1966 30.9417 12.8357C30.6086 13.472 30.1537 13.9594 29.5769 14.2979C29.0029 14.6364 28.3516 14.8056 27.6232 14.8056C26.8948 14.8056 26.2422 14.6364 25.6655 14.2979C25.0914 13.9567 24.6365 13.468 24.3007 12.8316C23.9677 12.1926 23.8011 11.4262 23.8011 10.5327C23.8011 9.63637 23.9677 8.87005 24.3007 8.23371C24.6365 7.59466 25.0914 7.1059 25.6655 6.76742C26.2422 6.42894 26.8948 6.2597 27.6232 6.2597C28.3516 6.2597 29.0029 6.42894 29.5769 6.76742C30.1537 7.1059 30.6086 7.59466 30.9417 8.23371C31.2775 8.87005 31.4453 9.63637 31.4453 10.5327ZM29.9303 10.5327C29.9303 9.90174 29.8315 9.36965 29.6338 8.93639C29.4388 8.50043 29.1681 8.17143 28.8215 7.94939C28.4749 7.72464 28.0754 7.61226 27.6232 7.61226C27.171 7.61226 26.7716 7.72464 26.425 7.94939C26.0784 8.17143 25.8063 8.50043 25.6086 8.93639C25.4136 9.36965 25.3162 9.90174 25.3162 10.5327C25.3162 11.1636 25.4136 11.697 25.6086 12.133C25.8063 12.5662 26.0784 12.8952 26.425 13.12C26.7716 13.342 27.171 13.4531 27.6232 13.4531C28.0754 13.4531 28.4749 13.342 28.8215 13.12C29.1681 12.8952 29.4388 12.5662 29.6338 12.133C29.8315 11.697 29.9303 11.1636 29.9303 10.5327ZM34.0926 14.6919L32.3298 8.45304H33.8286L34.9253 12.8397H34.9821L36.1032 8.45304H37.5857L38.7067 12.8154H38.7677L39.8481 8.45304H41.3509L39.5841 14.6919H38.0528L36.883 10.4758H36.7977L35.6279 14.6919H34.0926ZM44.9202 14.8137C44.2974 14.8137 43.7626 14.677 43.3158 14.4035C42.8717 14.13 42.5292 13.7523 42.2882 13.2703C42.0499 12.7856 41.9308 12.2278 41.9308 11.5968C41.9308 10.9632 42.0526 10.404 42.2963 9.91934C42.54 9.43193 42.8839 9.05283 43.328 8.78205C43.7748 8.50855 44.3028 8.37181 44.9121 8.37181C45.4184 8.37181 45.8666 8.46523 46.2565 8.65207C46.6492 8.8362 46.9619 9.09751 47.1948 9.43599C47.4277 9.77176 47.5603 10.1644 47.5928 10.6139H46.1875C46.1306 10.3133 45.9952 10.0629 45.7813 9.86247C45.5701 9.65938 45.2871 9.55784 44.9324 9.55784C44.6318 9.55784 44.3678 9.63908 44.1404 9.80155C43.9129 9.96131 43.7355 10.1915 43.6083 10.492C43.4837 10.7926 43.4214 11.1528 43.4214 11.5725C43.4214 11.9976 43.4837 12.3632 43.6083 12.6691C43.7328 12.9724 43.9075 13.2066 44.1322 13.3718C44.3597 13.5343 44.6264 13.6155 44.9324 13.6155C45.149 13.6155 45.3426 13.5749 45.5132 13.4937C45.6865 13.4097 45.8314 13.2892 45.9478 13.1322C46.0643 12.9751 46.1441 12.7842 46.1875 12.5595H47.5928C47.5576 13.0009 47.4277 13.3921 47.2029 13.7333C46.9782 14.0718 46.6722 14.3372 46.285 14.5294C45.8977 14.719 45.4428 14.8137 44.9202 14.8137ZM50.2706 11.0363V14.6919H48.8002V6.37343H50.2381V9.51316H50.3112C50.4574 9.16114 50.6835 8.88359 50.9895 8.6805C51.2982 8.47471 51.6908 8.37181 52.1674 8.37181C52.6006 8.37181 52.9784 8.46252 53.3006 8.64395C53.6229 8.82537 53.872 9.09074 54.048 9.44005C54.2267 9.78936 54.3161 10.2158 54.3161 10.7195V14.6919H52.8457V10.947C52.8457 10.5272 52.7374 10.201 52.5208 9.96808C52.3068 9.7325 52.0063 9.6147 51.6191 9.6147C51.3591 9.6147 51.1262 9.67157 50.9204 9.7853C50.7173 9.89632 50.5576 10.0574 50.4411 10.2686C50.3274 10.4799 50.2706 10.7357 50.2706 11.0363ZM55.8798 14.6919V6.37343H59.0642C59.6654 6.37343 60.165 6.4682 60.563 6.65775C60.9638 6.84459 61.263 7.10048 61.4607 7.42542C61.6611 7.75036 61.7612 8.11863 61.7612 8.53022C61.7612 8.8687 61.6963 9.15843 61.5663 9.39943C61.4363 9.63772 61.2617 9.83133 61.0423 9.98026C60.823 10.1292 60.5779 10.2362 60.3071 10.3011V10.3824C60.6023 10.3986 60.8853 10.4893 61.156 10.6545C61.4295 10.817 61.6529 11.0471 61.8262 11.345C61.9995 11.6429 62.0862 12.003 62.0862 12.4254C62.0862 12.856 61.9819 13.2432 61.7734 13.5871C61.5649 13.9283 61.2508 14.1977 60.8311 14.3954C60.4114 14.5931 59.8834 14.6919 59.247 14.6919H55.8798ZM57.3867 13.4328H59.0074C59.5544 13.4328 59.9484 13.3285 60.1893 13.12C60.4331 12.9088 60.5549 12.638 60.5549 12.3076C60.5549 12.0612 60.494 11.8392 60.3721 11.6415C60.2503 11.4411 60.077 11.2841 59.8522 11.1704C59.6275 11.0539 59.3594 10.9957 59.048 10.9957H57.3867V13.4328ZM57.3867 9.91121H58.8774C59.1374 9.91121 59.3716 9.86383 59.5801 9.76905C59.7886 9.67157 59.9524 9.53482 60.0716 9.35881C60.1934 9.1801 60.2543 8.96889 60.2543 8.72518C60.2543 8.40295 60.1406 8.13758 59.9132 7.92908C59.6884 7.72057 59.354 7.61632 58.9099 7.61632H57.3867V9.91121ZM67.3086 12.068V8.45304H68.7789V14.6919H67.3533V13.583H67.2883C67.1475 13.9323 66.9159 14.218 66.5937 14.4401C66.2742 14.6621 65.8802 14.7731 65.4117 14.7731C65.0029 14.7731 64.6414 14.6824 64.3273 14.501C64.0159 14.3169 63.7722 14.0501 63.5961 13.7008C63.4201 13.3488 63.3321 12.9237 63.3321 12.4254V8.45304H64.8025V12.198C64.8025 12.5933 64.9108 12.9074 65.1274 13.1403C65.3441 13.3732 65.6284 13.4896 65.9804 13.4896C66.197 13.4896 66.4069 13.4368 66.61 13.3312C66.8131 13.2256 66.9796 13.0685 67.1096 12.86C67.2422 12.6488 67.3086 12.3848 67.3086 12.068ZM72.6061 14.8016C72.116 14.8016 71.6773 14.6756 71.2901 14.4238C70.9029 14.172 70.5969 13.8064 70.3722 13.3271C70.1474 12.8479 70.035 12.2657 70.035 11.5806C70.035 10.8874 70.1488 10.3025 70.3762 9.82592C70.6064 9.34663 70.9164 8.98513 71.3064 8.74143C71.6963 8.49502 72.1309 8.37181 72.6102 8.37181C72.9757 8.37181 73.2763 8.43409 73.5119 8.55865C73.7475 8.6805 73.9343 8.82808 74.0724 9.00138C74.2105 9.17197 74.3175 9.33309 74.3933 9.48473H74.4542V6.37343H75.9286V14.6919H74.4827V13.709H74.3933C74.3175 13.8606 74.2078 14.0217 74.0643 14.1923C73.9208 14.3602 73.7312 14.5037 73.4956 14.6228C73.2601 14.742 72.9636 14.8016 72.6061 14.8016ZM73.0164 13.5952C73.3278 13.5952 73.5931 13.5113 73.8125 13.3434C74.0318 13.1728 74.1983 12.9359 74.3121 12.6326C74.4258 12.3293 74.4827 11.9759 74.4827 11.5725C74.4827 11.169 74.4258 10.8183 74.3121 10.5205C74.201 10.2226 74.0359 9.99109 73.8165 9.82592C73.5999 9.66074 73.3332 9.57815 73.0164 9.57815C72.6887 9.57815 72.4152 9.66345 72.1959 9.83404C71.9766 10.0046 71.8114 10.2402 71.7004 10.5408C71.5893 10.8414 71.5338 11.1852 71.5338 11.5725C71.5338 11.9624 71.5893 12.3104 71.7004 12.6163C71.8141 12.9196 71.9806 13.1593 72.1999 13.3353C72.422 13.5086 72.6941 13.5952 73.0164 13.5952ZM79.8107 14.8016C79.3205 14.8016 78.8819 14.6756 78.4946 14.4238C78.1074 14.172 77.8014 13.8064 77.5767 13.3271C77.3519 12.8479 77.2396 12.2657 77.2396 11.5806C77.2396 10.8874 77.3533 10.3025 77.5808 9.82592C77.8109 9.34663 78.121 8.98513 78.5109 8.74143C78.9008 8.49502 79.3354 8.37181 79.8147 8.37181C80.1803 8.37181 80.4808 8.43409 80.7164 8.55865C80.952 8.6805 81.1388 8.82808 81.2769 9.00138C81.415 9.17197 81.522 9.33309 81.5978 9.48473H81.6588V6.37343H83.1332V14.6919H81.6872V13.709H81.5978C81.522 13.8606 81.4123 14.0217 81.2688 14.1923C81.1253 14.3602 80.9358 14.5037 80.7002 14.6228C80.4646 14.742 80.1681 14.8016 79.8107 14.8016ZM80.2209 13.5952C80.5323 13.5952 80.7977 13.5113 81.017 13.3434C81.2363 13.1728 81.4029 12.9359 81.5166 12.6326C81.6303 12.3293 81.6872 11.9759 81.6872 11.5725C81.6872 11.169 81.6303 10.8183 81.5166 10.5205C81.4056 10.2226 81.2404 9.99109 81.0211 9.82592C80.8044 9.66074 80.5377 9.57815 80.2209 9.57815C79.8932 9.57815 79.6198 9.66345 79.4004 9.83404C79.1811 10.0046 79.0159 10.2402 78.9049 10.5408C78.7939 10.8414 78.7384 11.1852 78.7384 11.5725C78.7384 11.9624 78.7939 12.3104 78.9049 12.6163C79.0186 12.9196 79.1851 13.1593 79.4045 13.3353C79.6265 13.5086 79.8987 13.5952 80.2209 13.5952ZM85.6139 17.0315C85.4135 17.0315 85.228 17.0152 85.0574 16.9827C84.8895 16.9529 84.7555 16.9177 84.6553 16.8771L84.9965 15.7317C85.2104 15.794 85.4013 15.8238 85.5692 15.8211C85.7371 15.8184 85.8847 15.7656 86.0119 15.6627C86.1419 15.5625 86.2516 15.3946 86.3409 15.159L86.4669 14.8219L84.2045 8.45304H85.7642L87.202 13.1647H87.267L88.7089 8.45304H90.2727L87.7747 15.4474C87.6583 15.7777 87.504 16.0607 87.3117 16.2963C87.1194 16.5346 86.8839 16.716 86.605 16.8406C86.3288 16.9678 85.9984 17.0315 85.6139 17.0315Z" fill="url(#paint8_linear_61_27413)"/>
    <defs>
        <linearGradient id="paint0_linear_61_27413" x1="8.0164" y1="7.779" x2="18.4202" y2="7.779" gradientUnits="userSpaceOnUse">
            <stop stop-color="#F5AC55"/>
            <stop offset="1" stop-color="#BC7E40"/>
        </linearGradient>
        <linearGradient id="paint1_linear_61_27413" x1="13.2195" y1="1.05868" x2="13.2195" y2="14.5008" gradientUnits="userSpaceOnUse">
            <stop stop-color="#FFBF00"/>
            <stop offset="0.5578" stop-color="#FF5400"/>
            <stop offset="1" stop-color="#FF006F"/>
        </linearGradient>
        <linearGradient id="paint2_linear_61_27413" x1="14.7532" y1="7.74614" x2="18.8564" y2="7.74614" gradientUnits="userSpaceOnUse">
            <stop stop-color="#F5AC55"/>
            <stop offset="1" stop-color="#BC7E40"/>
        </linearGradient>
        <linearGradient id="paint3_linear_61_27413" x1="16.8053" y1="5.67644" x2="16.8053" y2="9.81629" gradientUnits="userSpaceOnUse">
            <stop stop-color="#FFBF00"/>
            <stop offset="0.5578" stop-color="#FF5400"/>
            <stop offset="1" stop-color="#FF006F"/>
        </linearGradient>
        <linearGradient id="paint4_linear_61_27413" x1="11.5576" y1="5.82906" x2="11.7259" y2="19.5304" gradientUnits="userSpaceOnUse">
            <stop stop-color="#9635EE"/>
            <stop offset="1" stop-color="#0087FF"/>
        </linearGradient>
        <linearGradient id="paint5_linear_61_27413" x1="0.612623" y1="12.5918" x2="4.71576" y2="12.5918" gradientUnits="userSpaceOnUse">
            <stop stop-color="#F5AC55"/>
            <stop offset="1" stop-color="#BC7E40"/>
        </linearGradient>
        <linearGradient id="paint6_linear_61_27413" x1="0.613289" y1="12.5919" x2="4.71642" y2="12.5919" gradientUnits="userSpaceOnUse">
            <stop stop-color="#346ADA"/>
            <stop offset="1" stop-color="#0241CC"/>
        </linearGradient>
        <linearGradient id="paint7_linear_61_27413" x1="2.63216" y1="10.5225" x2="2.63216" y2="14.6859" gradientUnits="userSpaceOnUse">
            <stop stop-color="#9635EE"/>
            <stop offset="1" stop-color="#0087FF"/>
        </linearGradient>
        <linearGradient id="paint8_linear_61_27413" x1="24.9468" y1="-1.19203" x2="90.0446" y2="9.09869" gradientUnits="userSpaceOnUse">
            <stop stop-color="#924BDA"/>
            <stop offset="0.483884" stop-color="#6662F9"/>
            <stop offset="1" stop-color="#3632CC"/>
        </linearGradient>
    </defs>
</svg>
