<svg width="134" height="30" viewBox="0 0 134 30" fill="none" xmlns="http://www.w3.org/2000/svg">
    <path fill-rule="evenodd" clip-rule="evenodd" d="M10.9473 1.96578C10.9473 1.34961 11.4463 0.850098 12.062 0.850098C22.471 0.850098 28.4622 5.99968 28.5078 11.8618C28.5536 17.7439 22.6152 22.8908 12.062 22.8908C11.4463 22.8908 10.9473 22.3913 10.9473 21.7751C10.9473 21.159 11.4463 20.6595 12.062 20.6595C22.1045 20.6595 26.3097 15.9017 26.2784 11.8792C26.2469 7.83656 21.9402 3.08146 12.062 3.08146C11.4463 3.08146 10.9473 2.58195 10.9473 1.96578Z" fill="black"/>
    <path fill-rule="evenodd" clip-rule="evenodd" d="M10.9473 1.96578C10.9473 1.34961 11.4463 0.850098 12.062 0.850098C22.471 0.850098 28.4622 5.99968 28.5078 11.8618C28.5536 17.7439 22.6152 22.8908 12.062 22.8908C11.4463 22.8908 10.9473 22.3913 10.9473 21.7751C10.9473 21.159 11.4463 20.6595 12.062 20.6595C22.1045 20.6595 26.3097 15.9017 26.2784 11.8792C26.2469 7.83656 21.9402 3.08146 12.062 3.08146C11.4463 3.08146 10.9473 2.58195 10.9473 1.96578Z" fill="url(#paint0_linear_12_52396)"/>
    <path fill-rule="evenodd" clip-rule="evenodd" d="M10.9473 1.96578C10.9473 1.34961 11.4463 0.850098 12.062 0.850098C22.471 0.850098 28.4622 5.99968 28.5078 11.8618C28.5536 17.7439 22.6152 22.8908 12.062 22.8908C11.4463 22.8908 10.9473 22.3913 10.9473 21.7751C10.9473 21.159 11.4463 20.6595 12.062 20.6595C22.1045 20.6595 26.3097 15.9017 26.2784 11.8792C26.2469 7.83656 21.9402 3.08146 12.062 3.08146C11.4463 3.08146 10.9473 2.58195 10.9473 1.96578Z" fill="url(#paint1_linear_12_52396)"/>
    <path d="M25.0115 14.8716C26.6812 14.8716 28.0348 13.5059 28.0348 11.8212C28.0348 10.1365 26.6812 8.77075 25.0115 8.77075C23.3418 8.77075 21.9883 10.1365 21.9883 11.8212C21.9883 13.5059 23.3418 14.8716 25.0115 14.8716Z" fill="url(#paint2_linear_12_52396)"/>
    <path d="M25.0115 14.8716C26.6812 14.8716 28.0348 13.5059 28.0348 11.8212C28.0348 10.1365 26.6812 8.77075 25.0115 8.77075C23.3418 8.77075 21.9883 10.1365 21.9883 11.8212C21.9883 13.5059 23.3418 14.8716 25.0115 14.8716Z" fill="url(#paint3_linear_12_52396)"/>
    <path fill-rule="evenodd" clip-rule="evenodd" d="M18.3638 28.8519C18.3657 29.468 17.8681 29.9685 17.2525 29.9696C6.81479 29.989 0.789975 24.8465 0.726122 18.9774C0.662052 13.0882 6.60224 7.9262 17.1846 7.90657C17.8002 7.90542 18.3009 8.404 18.3027 9.02017C18.3046 9.63634 17.8071 10.1368 17.1914 10.1379C7.11541 10.1566 2.91166 14.9294 2.95547 18.9558C2.99949 23.0024 7.33436 27.7566 17.2456 27.7382C17.8612 27.7371 18.3619 28.2357 18.3638 28.8519Z" fill="url(#paint4_linear_12_52396)"/>
    <path d="M4.17169 22.0127C5.84138 22.0127 7.19494 20.647 7.19494 18.9623C7.19494 17.2776 5.84138 15.9119 4.17169 15.9119C2.50199 15.9119 1.14844 17.2776 1.14844 18.9623C1.14844 20.647 2.50199 22.0127 4.17169 22.0127Z" fill="url(#paint5_linear_12_52396)"/>
    <path d="M4.17169 22.0127C5.84138 22.0127 7.19494 20.647 7.19494 18.9623C7.19494 17.2776 5.84138 15.9119 4.17169 15.9119C2.50199 15.9119 1.14844 17.2776 1.14844 18.9623C1.14844 20.647 2.50199 22.0127 4.17169 22.0127Z" fill="url(#paint6_linear_12_52396)"/>
    <path d="M4.17169 22.0127C5.84138 22.0127 7.19494 20.647 7.19494 18.9623C7.19494 17.2776 5.84138 15.9119 4.17169 15.9119C2.50199 15.9119 1.14844 17.2776 1.14844 18.9623C1.14844 20.647 2.50199 22.0127 4.17169 22.0127Z" fill="url(#paint7_linear_12_52396)"/>
    <path d="M46.4776 15.295C46.4776 16.616 46.2301 17.7474 45.7352 18.6893C45.2444 19.6271 44.5739 20.3455 43.7238 20.8444C42.8778 21.3432 41.9179 21.5927 40.8444 21.5927C39.7708 21.5927 38.809 21.3432 37.959 20.8444C37.1129 20.3415 36.4424 19.6212 35.9475 18.6833C35.4567 17.7414 35.2112 16.612 35.2112 15.295C35.2112 13.974 35.4567 12.8446 35.9475 11.9067C36.4424 10.9649 37.1129 10.2445 37.959 9.74566C38.809 9.2468 39.7708 8.99736 40.8444 8.99736C41.9179 8.99736 42.8778 9.2468 43.7238 9.74566C44.5739 10.2445 45.2444 10.9649 45.7352 11.9067C46.2301 12.8446 46.4776 13.974 46.4776 15.295ZM44.2446 15.295C44.2446 14.3651 44.099 13.5809 43.8076 12.9424C43.5203 12.2998 43.1212 11.8149 42.6104 11.4877C42.0995 11.1564 41.5109 10.9908 40.8444 10.9908C40.1779 10.9908 39.5892 11.1564 39.0784 11.4877C38.5676 11.8149 38.1665 12.2998 37.8752 12.9424C37.5878 13.5809 37.4441 14.3651 37.4441 15.295C37.4441 16.2249 37.5878 17.0111 37.8752 17.6536C38.1665 18.2922 38.5676 18.7771 39.0784 19.1083C39.5892 19.4356 40.1779 19.5992 40.8444 19.5992C41.5109 19.5992 42.0995 19.4356 42.6104 19.1083C43.1212 18.7771 43.5203 18.2922 43.8076 17.6536C44.099 17.0111 44.2446 16.2249 44.2446 15.295ZM50.3792 21.425L47.7811 12.23H49.9901L51.6064 18.6953H51.6902L53.3424 12.23H55.5274L57.1797 18.6594H57.2695L58.8618 12.23H61.0768L58.4727 21.425H56.2159L54.4918 15.2112H54.3661L52.642 21.425H50.3792ZM66.3373 21.6046C65.4194 21.6046 64.6312 21.4031 63.9727 21C63.3182 20.5969 62.8133 20.0402 62.4581 19.3298C62.1069 18.6155 61.9313 17.7933 61.9313 16.8634C61.9313 15.9296 62.1109 15.1054 62.4701 14.3911C62.8293 13.6727 63.3361 13.114 63.9907 12.7149C64.6492 12.3118 65.4274 12.1103 66.3253 12.1103C67.0716 12.1103 67.7321 12.248 68.3068 12.5233C68.8855 12.7947 69.3465 13.1798 69.6897 13.6787C70.0329 14.1736 70.2284 14.7523 70.2763 15.4147H68.2051C68.1212 14.9718 67.9217 14.6026 67.6064 14.3073C67.2951 14.0079 66.8781 13.8583 66.3553 13.8583C65.9123 13.8583 65.5232 13.978 65.1879 14.2175C64.8527 14.4529 64.5913 14.7922 64.4037 15.2352C64.2201 15.6781 64.1283 16.2089 64.1283 16.8275C64.1283 17.4541 64.2201 17.9929 64.4037 18.4438C64.5873 18.8908 64.8447 19.236 65.176 19.4795C65.5112 19.7189 65.9043 19.8387 66.3553 19.8387C66.6745 19.8387 66.9599 19.7788 67.2113 19.6591C67.4667 19.5354 67.6802 19.3578 67.8519 19.1263C68.0235 18.8948 68.1412 18.6135 68.2051 18.2822H70.2763C70.2245 18.9327 70.0329 19.5094 69.7016 20.0123C69.3704 20.5111 68.9194 20.9022 68.3487 21.1856C67.778 21.465 67.1076 21.6046 66.3373 21.6046ZM74.2228 16.0373V21.425H72.0558V9.16498H74.1749V13.7924H74.2827C74.4982 13.2736 74.8315 12.8646 75.2824 12.5652C75.7374 12.2619 76.3161 12.1103 77.0185 12.1103C77.657 12.1103 78.2137 12.244 78.6887 12.5114C79.1636 12.7787 79.5307 13.1699 79.7902 13.6847C80.0536 14.1995 80.1853 14.8281 80.1853 15.5704V21.425H78.0182V15.9056C78.0182 15.287 77.8586 14.8061 77.5393 14.4629C77.224 14.1157 76.781 13.9421 76.2103 13.9421C75.8272 13.9421 75.484 14.0259 75.1807 14.1935C74.8813 14.3572 74.6459 14.5946 74.4743 14.9059C74.3066 15.2172 74.2228 15.5943 74.2228 16.0373ZM82.49 21.425V9.16498H87.1833C88.0693 9.16498 88.8056 9.30466 89.3923 9.58403C89.9829 9.8594 90.4239 10.2365 90.7153 10.7154C91.0106 11.1944 91.1583 11.7371 91.1583 12.3437C91.1583 12.8426 91.0625 13.2696 90.8709 13.6248C90.6793 13.976 90.4219 14.2614 90.0987 14.4809C89.7754 14.7004 89.4142 14.858 89.0151 14.9538V15.0735C89.4501 15.0975 89.8672 15.2312 90.2663 15.4746C90.6694 15.7141 90.9986 16.0533 91.254 16.4923C91.5095 16.9313 91.6372 17.4621 91.6372 18.0847C91.6372 18.7192 91.4835 19.2899 91.1762 19.7968C90.8689 20.2996 90.406 20.6967 89.7874 20.988C89.1688 21.2794 88.3906 21.425 87.4527 21.425H82.49ZM84.7109 19.5693H87.0995C87.9057 19.5693 88.4863 19.4156 88.8415 19.1083C89.2007 18.797 89.3803 18.3979 89.3803 17.9111C89.3803 17.5479 89.2905 17.2206 89.1109 16.9293C88.9313 16.634 88.6759 16.4025 88.3447 16.2349C88.0134 16.0633 87.6183 15.9775 87.1594 15.9775H84.7109V19.5693ZM84.7109 14.3791H86.9079C87.2911 14.3791 87.6363 14.3093 87.9436 14.1696C88.2509 14.0259 88.4923 13.8244 88.6679 13.565C88.8475 13.3016 88.9373 12.9903 88.9373 12.6311C88.9373 12.1562 88.7697 11.7651 88.4345 11.4578C88.1032 11.1505 87.6103 10.9968 86.9558 10.9968H84.7109V14.3791ZM99.3341 17.5579V12.23H101.501V21.425H99.4V19.7908H99.3042C99.0967 20.3056 98.7554 20.7266 98.2805 21.0539C97.8096 21.3811 97.2289 21.5448 96.5385 21.5448C95.9359 21.5448 95.4031 21.4111 94.9401 21.1437C94.4812 20.8723 94.122 20.4792 93.8626 19.9644C93.6032 19.4456 93.4735 18.819 93.4735 18.0847V12.23H95.6405V17.7494C95.6405 18.3321 95.8002 18.795 96.1195 19.1383C96.4387 19.4815 96.8578 19.6531 97.3766 19.6531C97.6959 19.6531 98.0052 19.5753 98.3045 19.4196C98.6038 19.264 98.8492 19.0325 99.0408 18.7252C99.2363 18.4139 99.3341 18.0248 99.3341 17.5579ZM107.142 21.5867C106.419 21.5867 105.773 21.4011 105.202 21.0299C104.632 20.6588 104.181 20.12 103.849 19.4136C103.518 18.7072 103.352 17.8492 103.352 16.8395C103.352 15.8178 103.52 14.9558 103.855 14.2534C104.195 13.547 104.652 13.0142 105.226 12.655C105.801 12.2919 106.441 12.1103 107.148 12.1103C107.687 12.1103 108.13 12.2021 108.477 12.3856C108.824 12.5652 109.099 12.7827 109.303 13.0382C109.506 13.2896 109.664 13.527 109.776 13.7505H109.866V9.16498H112.039V21.425H109.908V19.9763H109.776C109.664 20.1998 109.502 20.4373 109.291 20.6887C109.079 20.9362 108.8 21.1477 108.453 21.3233C108.106 21.4989 107.669 21.5867 107.142 21.5867ZM107.746 19.8087C108.205 19.8087 108.597 19.685 108.92 19.4376C109.243 19.1861 109.488 18.8369 109.656 18.39C109.824 17.943 109.908 17.4222 109.908 16.8275C109.908 16.2329 109.824 15.7161 109.656 15.2771C109.492 14.8381 109.249 14.4968 108.926 14.2534C108.607 14.0099 108.213 13.8882 107.746 13.8882C107.264 13.8882 106.86 14.0139 106.537 14.2654C106.214 14.5168 105.971 14.864 105.807 15.307C105.643 15.75 105.561 16.2568 105.561 16.8275C105.561 17.4022 105.643 17.915 105.807 18.366C105.974 18.813 106.22 19.1662 106.543 19.4256C106.87 19.681 107.272 19.8087 107.746 19.8087ZM117.76 21.5867C117.038 21.5867 116.391 21.4011 115.821 21.0299C115.25 20.6588 114.799 20.12 114.468 19.4136C114.136 18.7072 113.971 17.8492 113.971 16.8395C113.971 15.8178 114.138 14.9558 114.474 14.2534C114.813 13.547 115.27 13.0142 115.845 12.655C116.419 12.2919 117.06 12.1103 117.766 12.1103C118.305 12.1103 118.748 12.2021 119.095 12.3856C119.442 12.5652 119.718 12.7827 119.921 13.0382C120.125 13.2896 120.282 13.527 120.394 13.7505H120.484V9.16498H122.657V21.425H120.526V19.9763H120.394C120.282 20.1998 120.121 20.4373 119.909 20.6887C119.698 20.9362 119.418 21.1477 119.071 21.3233C118.724 21.4989 118.287 21.5867 117.76 21.5867ZM118.365 19.8087C118.824 19.8087 119.215 19.685 119.538 19.4376C119.861 19.1861 120.107 18.8369 120.274 18.39C120.442 17.943 120.526 17.4222 120.526 16.8275C120.526 16.2329 120.442 15.7161 120.274 15.2771C120.111 14.8381 119.867 14.4968 119.544 14.2534C119.225 14.0099 118.832 13.8882 118.365 13.8882C117.882 13.8882 117.479 14.0139 117.156 14.2654C116.832 14.5168 116.589 14.864 116.425 15.307C116.262 15.75 116.18 16.2568 116.18 16.8275C116.18 17.4022 116.262 17.915 116.425 18.366C116.593 18.813 116.838 19.1662 117.162 19.4256C117.489 19.681 117.89 19.8087 118.365 19.8087ZM126.313 24.8732C126.018 24.8732 125.744 24.8492 125.493 24.8014C125.246 24.7575 125.048 24.7056 124.9 24.6457L125.403 22.9576C125.719 23.0493 126 23.0932 126.247 23.0893C126.495 23.0853 126.712 23.0074 126.9 22.8558C127.091 22.7081 127.253 22.4607 127.385 22.1135L127.57 21.6166L124.236 12.23H126.535L128.654 19.1742H128.75L130.875 12.23H133.18L129.498 22.5385C129.326 23.0254 129.099 23.4425 128.815 23.7897C128.532 24.1409 128.185 24.4083 127.774 24.5918C127.367 24.7794 126.88 24.8732 126.313 24.8732Z" fill="url(#paint8_linear_12_52396)"/>
    <defs>
        <linearGradient id="paint0_linear_12_52396" x1="12.0595" y1="11.8689" x2="27.3931" y2="11.8689" gradientUnits="userSpaceOnUse">
            <stop stop-color="#F5AC55"/>
            <stop offset="1" stop-color="#BC7E40"/>
        </linearGradient>
        <linearGradient id="paint1_linear_12_52396" x1="19.7281" y1="1.96424" x2="19.7281" y2="21.7757" gradientUnits="userSpaceOnUse">
            <stop stop-color="#FFBF00"/>
            <stop offset="0.5578" stop-color="#FF5400"/>
            <stop offset="1" stop-color="#FF006F"/>
        </linearGradient>
        <linearGradient id="paint2_linear_12_52396" x1="21.9873" y1="11.8207" x2="28.0347" y2="11.8207" gradientUnits="userSpaceOnUse">
            <stop stop-color="#F5AC55"/>
            <stop offset="1" stop-color="#BC7E40"/>
        </linearGradient>
        <linearGradient id="paint3_linear_12_52396" x1="25.0117" y1="8.77028" x2="25.0117" y2="14.8718" gradientUnits="userSpaceOnUse">
            <stop stop-color="#FFBF00"/>
            <stop offset="0.5578" stop-color="#FF5400"/>
            <stop offset="1" stop-color="#FF006F"/>
        </linearGradient>
        <linearGradient id="paint4_linear_12_52396" x1="17.2777" y1="8.9948" x2="17.5257" y2="29.1883" gradientUnits="userSpaceOnUse">
            <stop stop-color="#9635EE"/>
            <stop offset="1" stop-color="#0087FF"/>
        </linearGradient>
        <linearGradient id="paint5_linear_12_52396" x1="1.14747" y1="18.9618" x2="7.19483" y2="18.9618" gradientUnits="userSpaceOnUse">
            <stop stop-color="#F5AC55"/>
            <stop offset="1" stop-color="#BC7E40"/>
        </linearGradient>
        <linearGradient id="paint6_linear_12_52396" x1="1.14845" y1="18.9619" x2="7.1958" y2="18.9619" gradientUnits="userSpaceOnUse">
            <stop stop-color="#346ADA"/>
            <stop offset="1" stop-color="#0241CC"/>
        </linearGradient>
        <linearGradient id="paint7_linear_12_52396" x1="4.12393" y1="15.9119" x2="4.12393" y2="22.0482" gradientUnits="userSpaceOnUse">
            <stop stop-color="#9635EE"/>
            <stop offset="1" stop-color="#0087FF"/>
        </linearGradient>
        <linearGradient id="paint8_linear_12_52396" x1="37.0035" y1="-1.27137" x2="132.723" y2="13.9005" gradientUnits="userSpaceOnUse">
            <stop stop-color="#924BDA"/>
            <stop offset="0.483884" stop-color="#6662F9"/>
            <stop offset="1" stop-color="#3632CC"/>
        </linearGradient>
    </defs>
</svg>
